<svg width="20" height="20" viewBox="0 0 20 20" fill="none" xmlns="http://www.w3.org/2000/svg">
<path d="M8.6112 1.5259V4.86326C8.6112 5.31589 8.24429 5.68262 7.79167 5.68262C6.17678 5.68262 5.29836 7.33893 5.17661 10.6079H7.79167C8.24429 10.6079 8.6112 10.975 8.6112 11.4275V18.4741C8.6112 18.9265 8.24429 19.2933 7.79167 19.2933H0.819358C0.366566 19.2933 0 18.9263 0 18.4741V11.4275C0 9.86037 0.157787 8.4223 0.468835 7.15272C0.787847 5.85095 1.27754 4.71275 1.92387 3.76964C2.58893 2.8004 3.42084 2.03983 4.39667 1.50997C5.37908 0.976912 6.52152 0.706543 7.79195 0.706543C8.24429 0.706543 8.6112 1.07328 8.6112 1.5259ZM19.1804 5.68268C19.6328 5.68268 20 5.3156 20 4.86332V1.52596C20 1.07334 19.6329 0.7066 19.1804 0.7066C17.9105 0.7066 16.7679 0.977027 15.7858 1.51003C14.8098 2.03988 13.9774 2.80046 13.3123 3.7697C12.6662 4.71281 12.1765 5.85107 11.8574 7.15313C11.5465 8.4231 11.3887 9.86117 11.3887 11.4275V18.4742C11.3887 18.9266 11.7558 19.2934 12.2083 19.2934H19.1804C19.6327 19.2934 19.9996 18.9263 19.9996 18.4742V11.4275C19.9996 10.9751 19.6328 10.6079 19.1804 10.6079H16.6026C16.7225 7.33899 17.5881 5.68268 19.1804 5.68268Z" fill="white"/>
</svg>
