<svg width="14" height="14" viewBox="0 0 14 14" fill="none" xmlns="http://www.w3.org/2000/svg">
<path d="M11.8288 0.25H2.17115C1.08077 0.25 0.25 1.08077 0.25 2.17115V11.8288C0.25 12.9192 1.08077 13.75 2.17115 13.75H11.8288C12.9192 13.75 13.75 12.9192 13.75 11.8288V2.17115C13.75 1.08077 12.9192 0.25 11.8288 0.25ZM7 11.05C9.23269 11.05 11.05 9.28462 11.05 7.15577C11.05 6.79231 10.9981 6.37692 10.8942 6.06539H12.0365V11.5692C12.0365 11.8288 11.8288 12.0885 11.5173 12.0885H2.48269C2.22308 12.0885 1.96346 11.8808 1.96346 11.5692V6.01346H3.1577C3.05385 6.37692 3.00192 6.74039 3.00192 7.10385C2.95 9.28462 4.76731 11.05 7 11.05ZM7 9.49231C5.54615 9.49231 4.40385 8.35 4.40385 6.94808C4.40385 5.54615 5.54615 4.40385 7 4.40385C8.45385 4.40385 9.59615 5.54615 9.59615 6.94808C9.59615 8.40192 8.45385 9.49231 7 9.49231ZM11.9846 3.93654C11.9846 4.24808 11.725 4.50769 11.4135 4.50769H9.95961C9.64808 4.50769 9.38846 4.24808 9.38846 3.93654V2.53462C9.38846 2.22308 9.64808 1.96346 9.95961 1.96346H11.4135C11.725 1.96346 11.9846 2.22308 11.9846 2.53462V3.93654Z" fill="white"/>
</svg>
