<svg width="20" height="20" viewBox="0 0 20 20" fill="none" xmlns="http://www.w3.org/2000/svg">
<path d="M19.9999 8.76277C19.9999 7.65986 19.0804 6.7625 17.95 6.7625H10.9725L11.8859 4.36656C11.8949 4.34291 11.9024 4.31865 11.9082 4.29408C12.2399 2.90614 11.7649 2.03487 11.308 1.54841C10.7497 0.95378 9.95795 0.677901 9.51514 0.754805C9.34393 0.784407 9.19485 0.888472 9.10788 1.03892L5.95801 6.49013V18.1127L8.72153 19.2073C8.79019 19.2344 8.86328 19.2485 8.93729 19.2485H16.3984C17.5286 19.2485 18.4482 18.3511 18.4482 17.2482C18.4482 16.8331 18.3179 16.4469 18.095 16.127C18.684 15.7753 19.078 15.1414 19.078 14.4197C19.078 13.9546 18.9144 13.526 18.6404 13.1858C19.1346 12.8204 19.4543 12.2416 19.4543 11.5911C19.4543 11.1602 19.3139 10.7608 19.0754 10.4339C19.6319 10.0758 19.9999 9.4604 19.9999 8.76277Z" fill="#41DE94"/>
<path d="M4.78622 6.90967H0.585938C0.262299 6.90967 0 7.17197 0 7.49561V17.8739C0 18.1975 0.262299 18.4598 0.585938 18.4598H4.78622V6.90967Z" fill="#41DE94"/>
</svg>
