<svg width="20" height="20" viewBox="0 0 20 20" fill="none" xmlns="http://www.w3.org/2000/svg">
<path d="M9.15527e-05 11.2372C9.15527e-05 12.3401 0.919586 13.2375 2.04996 13.2375H9.0275L8.11411 15.6334C8.1051 15.6571 8.09763 15.6814 8.09183 15.7059C7.7601 17.0939 8.23511 17.9651 8.69196 18.4516C9.25027 19.0462 10.0421 19.3221 10.4849 19.2452C10.6561 19.2156 10.8051 19.1115 10.8921 18.9611L14.042 13.5099V1.88725L11.2785 0.79274C11.2098 0.765579 11.1367 0.751541 11.0627 0.751541H3.60162C2.47141 0.751541 1.55176 1.64891 1.55176 2.75182C1.55176 3.16685 1.68207 3.55306 1.905 3.87303C1.31601 4.22475 0.922028 4.8586 0.922028 5.58034C0.922028 6.04543 1.0856 6.47405 1.35965 6.81416C0.865417 7.17961 0.545746 7.75838 0.545746 8.40886C0.545746 8.83977 0.686127 9.23924 0.924622 9.56609C0.368134 9.92421 9.15527e-05 10.5396 9.15527e-05 11.2372Z" fill="#DE4141"/>
<path d="M15.2138 13.0903H19.4141C19.7377 13.0903 20 12.828 20 12.5044V2.12613C20 1.80249 19.7377 1.54019 19.4141 1.54019H15.2138V13.0903Z" fill="#DE4141"/>
</svg>
