<svg width="20" height="20" viewBox="0 0 20 20" fill="none" xmlns="http://www.w3.org/2000/svg">
<path d="M19.9477 7.67123C19.816 7.26626 19.4568 6.97954 19.0335 6.94124L13.2601 6.41709L10.9784 1.07521C10.81 0.682743 10.4267 0.429443 10 0.429443C9.57338 0.429443 9.18992 0.682743 9.02253 1.07521L6.74085 6.41709L0.96652 6.94124C0.543234 6.9803 0.184799 7.26702 0.0523506 7.67123C-0.0793349 8.07621 0.0422796 8.5204 0.362414 8.80117L4.72665 12.628L3.43986 18.2955C3.34571 18.7122 3.50746 19.1431 3.85323 19.3931C4.03908 19.5281 4.25744 19.5956 4.47656 19.5956C4.66485 19.5956 4.8533 19.5455 5.02161 19.4448L10 16.4681L14.9775 19.4448C15.3427 19.663 15.8018 19.643 16.1468 19.3931C16.4926 19.1431 16.6543 18.7122 16.5602 18.2955L15.2734 12.628L19.6376 8.80117C19.9576 8.5204 20.0794 8.07712 19.9477 7.67123Z" fill="white"/>
</svg>
