<svg>
	<!-- звезда для рейнтинга -->
	<symbol id="star" viewBox="0 0 20 20" xmlns="http://www.w3.org/2000/svg">
		<g>
			<path d="M19.9477 7.67123C19.816 7.26626 19.4568 6.97954 19.0335 6.94124L13.2601 6.41709L10.9784 1.07521C10.81 0.682743 10.4267 0.429443 10 0.429443C9.57338 0.429443 9.18992 0.682743 9.02253 1.07521L6.74085 6.41709L0.96652 6.94124C0.543234 6.9803 0.184799 7.26702 0.0523506 7.67123C-0.0793349 8.07621 0.0422796 8.5204 0.362414 8.80117L4.72665 12.628L3.43986 18.2955C3.34571 18.7122 3.50746 19.1431 3.85323 19.3931C4.03908 19.5281 4.25744 19.5956 4.47656 19.5956C4.66485 19.5956 4.8533 19.5455 5.02161 19.4448L10 16.4681L14.9775 19.4448C15.3427 19.663 15.8018 19.643 16.1468 19.3931C16.4926 19.1431 16.6543 18.7122 16.5602 18.2955L15.2734 12.628L19.6376 8.80117C19.9576 8.5204 20.0794 8.07712 19.9477 7.67123Z"/>
		</g>
	</symbol>


	<!-- домик на странице с подюорками -->
	<symbol id="home" viewBox="0 0 14 14" xmlns="http://www.w3.org/2000/svg">
		<g>
			<path d="M6.99997 4.1825L2.18457 7.88782V12.8521H6.0539V9.2141H8.10947V12.8521H11.8154V7.88782L6.99997 4.1825Z" fill="#4D4DFF"/>
			<path d="M12.0171 5.00752V2.46934H9.98911V3.44742L7 1.14795L0 6.53295L0.966301 7.78901L7 3.14623L13.0337 7.78904L14 6.53297L12.0171 5.00752Z" fill="#4D4DFF"/>
		</g>
	</symbol>


	<!-- стрелочки рядом с ссылками -->
	<symbol id="arrow" viewBox="0 0 6 10" xmlns="http://www.w3.org/2000/svg">
		<g>
			<path fill-rule="evenodd" clip-rule="evenodd" d="M0.21967 9.79079C-0.0732234 9.51184 -0.0732234 9.05958 0.21967 8.78064L4.18934 5L0.21967 1.21936C-0.0732237 0.940416 -0.0732237 0.488155 0.21967 0.209209C0.512563 -0.0697375 0.987437 -0.0697375 1.28033 0.209209L5.78033 4.49492C6.07322 4.77387 6.07322 5.22613 5.78033 5.50508L1.28033 9.79079C0.987437 10.0697 0.512563 10.0697 0.21967 9.79079Z"/>
		</g>
	</symbol>


	<!-- Значок ссылки на странице с подборками -->
	<symbol id="link_compilation" viewBox="0 0 18 18" xmlns="http://www.w3.org/2000/svg">
		<g clip-path="url(#clip0)">
			<path d="M17.1821 0H10.6367C10.1848 0 9.81852 0.366328 9.81852 0.818192C9.81852 1.27005 10.1848 1.63638 10.6367 1.63638H15.2069L6.7855 10.0579C6.46603 10.3773 6.46603 10.8954 6.7855 11.2149C6.94521 11.3746 7.1546 11.4545 7.36399 11.4545C7.57338 11.4545 7.78281 11.3746 7.94248 11.2149L16.364 2.79345V7.36365C16.364 7.81552 16.7303 8.18184 17.1822 8.18184C17.634 8.18184 18.0004 7.81552 18.0004 7.36365V0.818192C18.0003 0.366328 17.634 0 17.1821 0Z" fill="#4D4DFF"/>
			<path d="M13.9091 8.18178C13.4572 8.18178 13.0909 8.54811 13.0909 8.99997V16.3636H1.63635V4.90905H9C9.45186 4.90905 9.81819 4.54272 9.81819 4.09086C9.81819 3.639 9.45186 3.27271 9 3.27271H0.818191C0.366328 3.27271 0 3.63903 0 4.0909V17.1818C0 17.6336 0.366328 18 0.818191 18H13.9091C14.361 18 14.7273 17.6336 14.7273 17.1818V8.99997C14.7273 8.54811 14.3609 8.18178 13.9091 8.18178Z" fill="#4D4DFF"/>
		</g>
		<defs>
			<clipPath id="clip0">
				<rect width="18" height="18" fill="white"/>
			</clipPath>
		</defs>
	</symbol>


	<!-- Значок при наведении показывает инфо -->
	<symbol id="info" viewBox="0 0 20 20" xmlns="http://www.w3.org/2000/svg">
		<g>
			<path d="M10 0.000488281C4.486 0.000488281 0 4.48631 0 9.99995C0 15.5137 4.486 19.9995 10 19.9995C15.514 19.9995 20 15.5137 20 9.99995C20 4.48631 15.514 0.000488281 10 0.000488281ZM10 18.1813C5.48855 18.1813 1.81818 14.5112 1.81818 10C1.81818 5.48879 5.48855 1.81867 10 1.81867C14.5115 1.81867 18.1818 5.48879 18.1818 9.99995C18.1818 14.5113 14.5115 18.1813 10 18.1813Z"/>
			<path d="M9.99991 7.87939C9.49785 7.87939 9.09082 8.28642 9.09082 8.78849V14.8481C9.09082 15.3501 9.49785 15.7572 9.99991 15.7572C10.502 15.7572 10.909 15.3501 10.909 14.8481V8.78849C10.909 8.28649 10.502 7.87939 9.99991 7.87939Z"/>
			<path d="M9.99991 4.24316C9.76052 4.24316 9.52652 4.34013 9.35688 4.50922C9.18779 4.67832 9.09082 4.91286 9.09082 5.15225C9.09082 5.39165 9.18779 5.62559 9.35688 5.79529C9.52597 5.96438 9.76052 6.06135 9.99991 6.06135C10.2393 6.06135 10.4732 5.96438 10.6429 5.79529C10.812 5.62559 10.909 5.39165 10.909 5.15225C10.909 4.91286 10.812 4.67832 10.6429 4.50922C10.4732 4.34007 10.2393 4.24316 9.99991 4.24316Z"/>
		</g>
	</symbol>


	<!-- значок шляпы ученика ежжи -->
	<symbol id="hat" viewBox="0 0 14 14" xmlns="http://www.w3.org/2000/svg">
		<g clip-path="url(#clip0)">
			<path d="M7 6.19772C7.43457 6.19772 7.84738 6.14569 8.16244 6.05119L13.2769 4.51685C13.8745 4.33747 14 4.03376 14 3.81058C14 3.58743 13.8745 3.28373 13.2768 3.10446L8.16244 1.57012C7.84741 1.47562 7.43457 1.42358 7 1.42358C6.56548 1.42358 6.15267 1.47559 5.83756 1.57012L0.723215 3.10446C0.125453 3.28375 1.78604e-08 3.58743 1.78604e-08 3.81058C-5.46696e-05 4.03376 0.125453 4.33747 0.72316 4.51682L5.83762 6.05116C6.15267 6.14571 6.56548 6.19772 7 6.19772Z" fill="#4D4DFF"/>
			<path d="M7.00029 7.01821C6.4806 7.01821 5.99711 6.95557 5.60218 6.83706L2.63623 5.94727V7.10568C2.63623 7.48959 2.8858 8.03042 4.07476 8.42677C4.86223 8.6893 5.90124 8.83386 7.00027 8.83386C8.09929 8.83386 9.13827 8.6893 9.92578 8.42677C11.1147 8.03045 11.3643 7.48962 11.3643 7.10568V5.94727L8.39835 6.83706C8.0034 6.95557 7.51993 7.01821 7.00029 7.01821Z" fill="#4D4DFF"/>
			<path d="M13.1213 8.30871V5.41992L12.301 5.66602V8.30873C11.7909 8.48051 11.4224 8.96302 11.4224 9.53029V11.2876C11.4224 11.9982 12.0005 12.5764 12.7112 12.5764C13.4218 12.5764 14 11.9982 14 11.2876V9.53029C14 8.96299 13.6314 8.48051 13.1213 8.30871Z" fill="#4D4DFF"/>
		</g>
		<defs>
			<clipPath id="clip0">
				<rect width="14" height="14" fill="white"/>
			</clipPath>
		</defs>
	</symbol>


	<!-- значок часов синих -->
	<symbol id="time" viewBox="0 0 14 14" xmlns="http://www.w3.org/2000/svg">
		<g>
			<path d="M11.2777 6.61084H7.38866V2.72234C7.38925 2.50767 7.21483 2.33325 7.00016 2.33325C4.42708 2.33325 2.3335 4.42684 2.3335 6.99992C2.3335 9.573 4.42708 11.6666 7.00016 11.6666C9.57325 11.6666 11.6668 9.573 11.6668 6.99992C11.6668 6.78525 11.4924 6.61084 11.2777 6.61084Z" fill="#4D4DFF"/>
			<path d="M7 14C3.14008 14 0 10.8599 0 7C0 3.14008 3.14008 0 7 0C10.8599 0 14 3.14008 14 7C14 10.8599 10.8599 14 7 14ZM7 1.16667C3.7835 1.16667 1.16667 3.7835 1.16667 7C1.16667 10.2165 3.7835 12.8333 7 12.8333C10.2165 12.8333 12.8333 10.2165 12.8333 7C12.8333 3.7835 10.2165 1.16667 7 1.16667Z" fill="#4D4DFF"/>
		</g>
	</symbol>


	<!-- цитата -->
	<symbol id="blockquote" viewBox="0 0 20 20" xmlns="http://www.w3.org/2000/svg">
		<g>
			<path d="M8.6112 1.5259V4.86326C8.6112 5.31589 8.24429 5.68262 7.79167 5.68262C6.17678 5.68262 5.29836 7.33893 5.17661 10.6079H7.79167C8.24429 10.6079 8.6112 10.975 8.6112 11.4275V18.4741C8.6112 18.9265 8.24429 19.2933 7.79167 19.2933H0.819358C0.366566 19.2933 0 18.9263 0 18.4741V11.4275C0 9.86037 0.157787 8.4223 0.468835 7.15272C0.787847 5.85095 1.27754 4.71275 1.92387 3.76964C2.58893 2.8004 3.42084 2.03983 4.39667 1.50997C5.37908 0.976912 6.52152 0.706543 7.79195 0.706543C8.24429 0.706543 8.6112 1.07328 8.6112 1.5259ZM19.1804 5.68268C19.6328 5.68268 20 5.3156 20 4.86332V1.52596C20 1.07334 19.6329 0.7066 19.1804 0.7066C17.9105 0.7066 16.7679 0.977027 15.7858 1.51003C14.8098 2.03988 13.9774 2.80046 13.3123 3.7697C12.6662 4.71281 12.1765 5.85107 11.8574 7.15313C11.5465 8.4231 11.3887 9.86117 11.3887 11.4275V18.4742C11.3887 18.9266 11.7558 19.2934 12.2083 19.2934H19.1804C19.6327 19.2934 19.9996 18.9263 19.9996 18.4742V11.4275C19.9996 10.9751 19.6328 10.6079 19.1804 10.6079H16.6026C16.7225 7.33899 17.5881 5.68268 19.1804 5.68268Z" fill="white"/>
		</g>
	</symbol>


	<!-- Значок лупы для поиска -->
	<symbol id="search__icons" viewBox="0 0 20 20" xmlns="http://www.w3.org/2000/svg">
		<g clip-path="url(#clip0)">
			<path fill-rule="evenodd" clip-rule="evenodd" d="M9 2C5.13401 2 2 5.13401 2 9C2 12.866 5.13401 16 9 16C12.866 16 16 12.866 16 9C16 5.13401 12.866 2 9 2ZM0 9C0 4.02944 4.02944 0 9 0C13.9706 0 18 4.02944 18 9C18 13.9706 13.9706 18 9 18C4.02944 18 0 13.9706 0 9Z"/>
			<path fill-rule="evenodd" clip-rule="evenodd" d="M13.9428 13.9429C14.3333 13.5524 14.9665 13.5524 15.357 13.9429L19.707 18.2929C20.0975 18.6834 20.0975 19.3166 19.707 19.7071C19.3165 20.0977 18.6833 20.0977 18.2928 19.7071L13.9428 15.3571C13.5523 14.9666 13.5523 14.3334 13.9428 13.9429Z"/>
		</g>
		<defs>
			<clipPath id="clip0">
				<rect width="20" height="20"/>
			</clipPath>
		</defs>
	</symbol>


	<!-- Значок vk -->
	<symbol id="vk" viewBox="0 0 17 10" xmlns="http://www.w3.org/2000/svg">
		<path d="M16.3467 8.99829C16.3467 8.93151 16.2811 8.93151 16.2811 8.86473C16.0185 8.33048 15.4276 7.66268 14.6398 6.92809C14.2459 6.59418 14.049 6.32705 13.9177 6.19349C13.7207 5.92637 13.7208 5.72603 13.7864 5.45891C13.8521 5.25857 14.1146 4.92465 14.5742 4.32363C14.8368 3.98972 14.9681 3.78939 15.165 3.58904C16.1498 2.25343 16.6093 1.38527 16.478 0.984583L16.4124 0.917809C16.3467 0.851028 16.2811 0.784249 16.1498 0.784249C16.0185 0.717468 15.8215 0.717468 15.6246 0.784249H13.1299C13.0643 0.784249 13.0643 0.784249 12.933 0.784249C12.8673 0.784249 12.8017 0.784249 12.8017 0.784249H12.736H12.6704L12.6047 0.851024C12.5391 0.917805 12.5391 0.917803 12.5391 0.984583C12.2765 1.71917 11.9482 2.3202 11.62 2.98801C11.423 3.32191 11.2261 3.65582 11.0291 3.92295C10.8322 4.19007 10.7009 4.39041 10.5696 4.52397C10.4383 4.65753 10.307 4.72431 10.2413 4.85788C10.1757 4.92466 10.0444 4.99144 10.0444 4.92466C9.97873 4.92466 9.91307 4.92466 9.91307 4.85788C9.84742 4.79109 9.78178 4.72431 9.71613 4.65753C9.65048 4.59075 9.65047 4.45719 9.58482 4.32363C9.58482 4.19006 9.58482 4.0565 9.58482 3.98972C9.58482 3.92294 9.58482 3.7226 9.58482 3.58904C9.58482 3.3887 9.58482 3.25513 9.58482 3.18835C9.58482 2.98801 9.58482 2.72089 9.58482 2.45377C9.58482 2.18665 9.58482 1.9863 9.58482 1.85274C9.58482 1.71917 9.58482 1.51883 9.58482 1.38527C9.58482 1.18493 9.58482 1.05136 9.58482 0.984583C9.58482 0.917803 9.51919 0.784245 9.51919 0.717464C9.45354 0.650683 9.38788 0.5839 9.32223 0.517119C9.25658 0.450339 9.12529 0.450341 9.05964 0.38356C8.73139 0.316779 8.3375 0.25 7.87795 0.25C6.82756 0.25 6.10541 0.316783 5.84281 0.450345C5.71151 0.517125 5.58022 0.583902 5.51457 0.717464C5.38327 0.851026 5.38326 0.917809 5.44891 0.917809C5.77716 0.98459 6.03976 1.11815 6.17106 1.31849L6.23672 1.45206C6.30236 1.51884 6.30235 1.65239 6.368 1.85274C6.43365 2.05308 6.43366 2.25342 6.43366 2.52055C6.43366 2.92123 6.43366 3.32192 6.43366 3.58904C6.43366 3.92295 6.368 4.12328 6.368 4.32363C6.368 4.52397 6.30236 4.65754 6.23672 4.72432C6.17107 4.85788 6.17106 4.92466 6.10541 4.92466C6.10541 4.92466 6.1054 4.99144 6.03975 4.99144C5.9741 4.99144 5.90846 5.05822 5.77716 5.05822C5.71151 5.05822 5.58022 4.99144 5.51457 4.92466C5.38327 4.85788 5.25197 4.72432 5.18632 4.59076C5.05502 4.45719 4.92372 4.25685 4.79242 3.98972C4.66112 3.7226 4.46416 3.45548 4.33286 3.05479L4.20158 2.78767C4.13593 2.65411 4.00463 2.38699 3.87333 2.05308C3.74203 1.71918 3.61073 1.45206 3.47943 1.11815C3.41378 0.984592 3.34814 0.917805 3.28249 0.851024H3.21683C3.21683 0.851024 3.15118 0.784249 3.08553 0.784249C3.01988 0.784249 2.95423 0.717464 2.88859 0.717464H0.525198C0.2626 0.717464 0.131303 0.784243 0.0656535 0.851024L0 0.917809C0 0.917809 0 0.984587 0 1.05137C0 1.11815 4.00595e-06 1.18493 0.0656535 1.31849C0.393901 2.11986 0.787796 2.92123 1.18169 3.7226C1.57559 4.45719 1.96949 5.125 2.23209 5.59247C2.56034 6.05994 2.82293 6.5274 3.15118 6.92809C3.47943 7.32877 3.67637 7.59589 3.74202 7.72945C3.87332 7.86302 3.93897 7.92979 4.00462 7.99657L4.20158 8.19692C4.33287 8.33048 4.52982 8.53083 4.79242 8.73117C5.05502 8.93151 5.38326 9.13185 5.71151 9.33219C6.03975 9.53253 6.43366 9.6661 6.82756 9.79967C7.2871 9.93323 7.681 10 8.07489 9.93323H9.05964C9.25659 9.93323 9.38789 9.86644 9.51919 9.73288L9.58482 9.6661C9.58482 9.59931 9.65048 9.59932 9.65048 9.53254C9.65048 9.46576 9.65048 9.39898 9.65048 9.26542C9.65048 8.99829 9.65048 8.79795 9.71613 8.59761C9.78178 8.39727 9.78179 8.26371 9.84744 8.13014C9.91309 7.99658 9.97873 7.9298 10.0444 7.86301C10.11 7.79623 10.1757 7.72945 10.1757 7.72945H10.2413C10.3726 7.66267 10.5696 7.72945 10.7009 7.86301C10.8978 7.99658 11.0948 8.19692 11.2261 8.39726C11.3574 8.59761 11.5543 8.79795 11.8169 9.06507C12.0795 9.3322 12.2765 9.53254 12.4078 9.59932L12.6047 9.73288C12.736 9.79966 12.8673 9.86644 13.0643 9.93323C13.2612 10 13.3925 10 13.5238 10L15.7559 9.93323C15.9528 9.93323 16.1498 9.86645 16.2811 9.79967C16.4124 9.73289 16.478 9.6661 16.478 9.53254C16.478 9.46576 16.478 9.3322 16.478 9.26542C16.3467 9.13186 16.3467 9.06507 16.3467 8.99829Z" fill="white"/>
	</symbol>


	<!-- Значок facebook -->
	<symbol id="facebook" viewBox="0 0 14 14" xmlns="http://www.w3.org/2000/svg">
		<path d="M13.75 2.48834C13.75 1.29922 12.7008 0.25 11.5117 0.25H2.48834C1.29922 0.25 0.25 1.29922 0.25 2.48834V11.5116C0.25 12.7008 1.29922 13.75 2.48834 13.75H7.03497V8.64378H5.35622V6.40544H7.03497V5.49611C7.03497 3.95725 8.15415 2.62823 9.55311 2.62823H11.3718V4.86657H9.55311C9.34326 4.86657 9.13342 5.07642 9.13342 5.49611V6.40544H11.3718V8.64378H9.13342V13.75H11.5117C12.7008 13.75 13.75 12.7008 13.75 11.5116V2.48834Z" fill="white"/>
	</symbol>


	<!-- Значок instagram -->
	<symbol id="insta" viewBox="0 0 14 14" xmlns="http://www.w3.org/2000/svg">
		<path d="M11.8288 0.25H2.17115C1.08077 0.25 0.25 1.08077 0.25 2.17115V11.8288C0.25 12.9192 1.08077 13.75 2.17115 13.75H11.8288C12.9192 13.75 13.75 12.9192 13.75 11.8288V2.17115C13.75 1.08077 12.9192 0.25 11.8288 0.25ZM7 11.05C9.23269 11.05 11.05 9.28462 11.05 7.15577C11.05 6.79231 10.9981 6.37692 10.8942 6.06539H12.0365V11.5692C12.0365 11.8288 11.8288 12.0885 11.5173 12.0885H2.48269C2.22308 12.0885 1.96346 11.8808 1.96346 11.5692V6.01346H3.1577C3.05385 6.37692 3.00192 6.74039 3.00192 7.10385C2.95 9.28462 4.76731 11.05 7 11.05ZM7 9.49231C5.54615 9.49231 4.40385 8.35 4.40385 6.94808C4.40385 5.54615 5.54615 4.40385 7 4.40385C8.45385 4.40385 9.59615 5.54615 9.59615 6.94808C9.59615 8.40192 8.45385 9.49231 7 9.49231ZM11.9846 3.93654C11.9846 4.24808 11.725 4.50769 11.4135 4.50769H9.95961C9.64808 4.50769 9.38846 4.24808 9.38846 3.93654V2.53462C9.38846 2.22308 9.64808 1.96346 9.95961 1.96346H11.4135C11.725 1.96346 11.9846 2.22308 11.9846 2.53462V3.93654Z" fill="white"/>
	</symbol>
</svg>