<svg width="14" height="14" viewBox="0 0 14 14" fill="none" xmlns="http://www.w3.org/2000/svg">
<path d="M11.2773 6.61096H7.38817V2.72246C7.38876 2.50779 7.21434 2.33337 6.99967 2.33337C4.42659 2.33337 2.33301 4.42696 2.33301 7.00004C2.33301 9.57312 4.42659 11.6667 6.99967 11.6667C9.57276 11.6667 11.6663 9.57312 11.6663 7.00004C11.6663 6.78537 11.4919 6.61096 11.2773 6.61096Z" fill="#4D4DFF"/>
<path d="M7 14C3.14008 14 0 10.8599 0 7C0 3.14008 3.14008 0 7 0C10.8599 0 14 3.14008 14 7C14 10.8599 10.8599 14 7 14ZM7 1.16667C3.7835 1.16667 1.16667 3.7835 1.16667 7C1.16667 10.2165 3.7835 12.8333 7 12.8333C10.2165 12.8333 12.8333 10.2165 12.8333 7C12.8333 3.7835 10.2165 1.16667 7 1.16667Z" fill="#4D4DFF"/>
</svg>
