<svg width="17" height="10" viewBox="0 0 17 10" fill="none" xmlns="http://www.w3.org/2000/svg">
<path d="M16.3467 8.99829C16.3467 8.93151 16.2811 8.93151 16.2811 8.86473C16.0185 8.33048 15.4276 7.66268 14.6398 6.92809C14.2459 6.59418 14.049 6.32705 13.9177 6.19349C13.7207 5.92637 13.7208 5.72603 13.7864 5.45891C13.8521 5.25857 14.1146 4.92465 14.5742 4.32363C14.8368 3.98972 14.9681 3.78939 15.165 3.58904C16.1498 2.25343 16.6093 1.38527 16.478 0.984583L16.4124 0.917809C16.3467 0.851028 16.2811 0.784249 16.1498 0.784249C16.0185 0.717468 15.8215 0.717468 15.6246 0.784249H13.1299C13.0643 0.784249 13.0643 0.784249 12.933 0.784249C12.8673 0.784249 12.8017 0.784249 12.8017 0.784249H12.736H12.6704L12.6047 0.851024C12.5391 0.917805 12.5391 0.917803 12.5391 0.984583C12.2765 1.71917 11.9482 2.3202 11.62 2.98801C11.423 3.32191 11.2261 3.65582 11.0291 3.92295C10.8322 4.19007 10.7009 4.39041 10.5696 4.52397C10.4383 4.65753 10.307 4.72431 10.2413 4.85788C10.1757 4.92466 10.0444 4.99144 10.0444 4.92466C9.97873 4.92466 9.91307 4.92466 9.91307 4.85788C9.84742 4.79109 9.78178 4.72431 9.71613 4.65753C9.65048 4.59075 9.65047 4.45719 9.58482 4.32363C9.58482 4.19006 9.58482 4.0565 9.58482 3.98972C9.58482 3.92294 9.58482 3.7226 9.58482 3.58904C9.58482 3.3887 9.58482 3.25513 9.58482 3.18835C9.58482 2.98801 9.58482 2.72089 9.58482 2.45377C9.58482 2.18665 9.58482 1.9863 9.58482 1.85274C9.58482 1.71917 9.58482 1.51883 9.58482 1.38527C9.58482 1.18493 9.58482 1.05136 9.58482 0.984583C9.58482 0.917803 9.51919 0.784245 9.51919 0.717464C9.45354 0.650683 9.38788 0.5839 9.32223 0.517119C9.25658 0.450339 9.12529 0.450341 9.05964 0.38356C8.73139 0.316779 8.3375 0.25 7.87795 0.25C6.82756 0.25 6.10541 0.316783 5.84281 0.450345C5.71151 0.517125 5.58022 0.583902 5.51457 0.717464C5.38327 0.851026 5.38326 0.917809 5.44891 0.917809C5.77716 0.98459 6.03976 1.11815 6.17106 1.31849L6.23672 1.45206C6.30236 1.51884 6.30235 1.65239 6.368 1.85274C6.43365 2.05308 6.43366 2.25342 6.43366 2.52055C6.43366 2.92123 6.43366 3.32192 6.43366 3.58904C6.43366 3.92295 6.368 4.12328 6.368 4.32363C6.368 4.52397 6.30236 4.65754 6.23672 4.72432C6.17107 4.85788 6.17106 4.92466 6.10541 4.92466C6.10541 4.92466 6.1054 4.99144 6.03975 4.99144C5.9741 4.99144 5.90846 5.05822 5.77716 5.05822C5.71151 5.05822 5.58022 4.99144 5.51457 4.92466C5.38327 4.85788 5.25197 4.72432 5.18632 4.59076C5.05502 4.45719 4.92372 4.25685 4.79242 3.98972C4.66112 3.7226 4.46416 3.45548 4.33286 3.05479L4.20158 2.78767C4.13593 2.65411 4.00463 2.38699 3.87333 2.05308C3.74203 1.71918 3.61073 1.45206 3.47943 1.11815C3.41378 0.984592 3.34814 0.917805 3.28249 0.851024H3.21683C3.21683 0.851024 3.15118 0.784249 3.08553 0.784249C3.01988 0.784249 2.95423 0.717464 2.88859 0.717464H0.525198C0.2626 0.717464 0.131303 0.784243 0.0656535 0.851024L0 0.917809C0 0.917809 0 0.984587 0 1.05137C0 1.11815 4.00595e-06 1.18493 0.0656535 1.31849C0.393901 2.11986 0.787796 2.92123 1.18169 3.7226C1.57559 4.45719 1.96949 5.125 2.23209 5.59247C2.56034 6.05994 2.82293 6.5274 3.15118 6.92809C3.47943 7.32877 3.67637 7.59589 3.74202 7.72945C3.87332 7.86302 3.93897 7.92979 4.00462 7.99657L4.20158 8.19692C4.33287 8.33048 4.52982 8.53083 4.79242 8.73117C5.05502 8.93151 5.38326 9.13185 5.71151 9.33219C6.03975 9.53253 6.43366 9.6661 6.82756 9.79967C7.2871 9.93323 7.681 10 8.07489 9.93323H9.05964C9.25659 9.93323 9.38789 9.86644 9.51919 9.73288L9.58482 9.6661C9.58482 9.59931 9.65048 9.59932 9.65048 9.53254C9.65048 9.46576 9.65048 9.39898 9.65048 9.26542C9.65048 8.99829 9.65048 8.79795 9.71613 8.59761C9.78178 8.39727 9.78179 8.26371 9.84744 8.13014C9.91309 7.99658 9.97873 7.9298 10.0444 7.86301C10.11 7.79623 10.1757 7.72945 10.1757 7.72945H10.2413C10.3726 7.66267 10.5696 7.72945 10.7009 7.86301C10.8978 7.99658 11.0948 8.19692 11.2261 8.39726C11.3574 8.59761 11.5543 8.79795 11.8169 9.06507C12.0795 9.3322 12.2765 9.53254 12.4078 9.59932L12.6047 9.73288C12.736 9.79966 12.8673 9.86644 13.0643 9.93323C13.2612 10 13.3925 10 13.5238 10L15.7559 9.93323C15.9528 9.93323 16.1498 9.86645 16.2811 9.79967C16.4124 9.73289 16.478 9.6661 16.478 9.53254C16.478 9.46576 16.478 9.3322 16.478 9.26542C16.3467 9.13186 16.3467 9.06507 16.3467 8.99829Z" fill="white"/>
</svg>
